<svg width="30" height="30" viewBox="0 0 30 30" fill="none" xmlns="http://www.w3.org/2000/svg">
<path d="M20.3335 4.1744L20.333 4.17455L9.04647 7.92424C9.04627 7.92431 9.04606 7.92438 9.04586 7.92444C7.18129 8.54807 5.82192 9.25793 4.93853 9.98833C4.05334 10.7202 3.69727 11.4263 3.69727 12.0547C3.69727 12.6831 4.05319 13.3883 4.93815 14.1185C5.82144 14.8474 7.18078 15.555 9.04547 16.1755L20.3335 4.1744ZM20.3335 4.1744C22.7877 3.35631 24.5023 3.67495 25.4169 4.59086C26.332 5.50727 26.6503 7.22549 25.8384 9.67973C25.8384 9.67999 25.8383 9.68024 25.8382 9.68049L22.0761 20.9543L22.076 20.9547M20.3335 4.1744L22.076 20.9547M22.076 20.9547C21.4554 22.8194 20.7471 24.1788 20.0173 25.0621M22.076 20.9547L20.0173 25.0621M20.0173 25.0621C19.2862 25.947 18.5798 26.3032 17.9504 26.3032M20.0173 25.0621L17.9504 26.3032M17.9504 26.3032C17.321 26.3032 16.6146 25.947 15.8835 25.0621M17.9504 26.3032L15.8835 25.0621M15.8835 25.0621C15.1538 24.1788 14.4454 22.8195 13.8249 20.955L15.8835 25.0621ZM12.3955 17.288L9.04577 16.1756L13.8248 20.9547L12.7124 17.605L12.6334 17.367L12.3955 17.288ZM16.1789 15.5536L16.1799 15.5527L20.9289 10.7786C20.9292 10.7784 20.9294 10.7782 20.9296 10.778C21.4867 10.2201 21.4865 9.30405 20.9289 8.7465L20.5754 9.10005L20.9289 8.7465C20.3712 8.18874 19.4546 8.18874 18.8968 8.7465L18.8959 8.74743L14.1468 13.5215C14.1468 13.5216 14.1467 13.5216 14.1466 13.5217C13.5891 14.0795 13.5891 14.9959 14.1468 15.5536C14.433 15.8398 14.7999 15.9751 15.1629 15.9751C15.5258 15.9751 15.8927 15.8398 16.1789 15.5536Z" fill="#398FBA" stroke="#398FBA"/>
</svg>
